<?xml version="1.0" encoding="UTF-8"?><svg id="Capa_1" xmlns="http://www.w3.org/2000/svg" viewBox="0 0 1500 1500"><defs><style>.cls-1{fill:#fff;}.cls-2,.cls-3,.cls-4,.cls-5{fill:none;stroke-miterlimit:10;}.cls-2,.cls-3,.cls-5{stroke:#fff;}.cls-2,.cls-4,.cls-5{stroke-width:4px;}.cls-3{stroke-width:3px;}.cls-4{stroke:#000;}.cls-5{stroke-dasharray:50.66 50.66;}</style></defs><line class="cls-2" x1="644.66" y1="1028.43" x2="644.66" y2="1070.57"/><line class="cls-5" x1="644.66" y1="1121.24" x2="644.66" y2="1197.23"/><line class="cls-2" x1="644.66" y1="1222.56" x2="644.66" y2="1264.7"/><rect class="cls-3" x="342.34" y="138.15" width="815.33" height="754.82"/><line class="cls-4" x1="262.71" y1="892.97" x2="1237.29" y2="892.97"/><line class="cls-3" x1="342.34" y1="515.56" x2="1157.66" y2="515.56"/><rect class="cls-1" x="828.65" y="654.1" width="197.58" height="156.34"/><rect class="cls-1" x="886.18" y="810.45" width="82.52" height="82.52"/><path class="cls-1" d="M330.92,923.69v445.74h853.44v-445.74H330.92ZM1006.18,1218.54c-25.5,0-46.17,20.67-46.17,46.16h-404.76c0-25.49-20.66-46.16-46.15-46.16v-143.96c25.49,0,46.15-20.66,46.15-46.15h404.76c0,25.49,20.67,46.15,46.17,46.15v143.96Z"/><rect class="cls-1" x="266.37" y="880.35" width="982.55" height="43.36"/><rect class="cls-1" x="230.97" y="130.57" width="1038.07" height="159.95"/><line class="cls-3" x1="808.63" y1="1264.7" x2="808.63" y2="1028.43"/><line class="cls-3" x1="849.95" y1="1100.73" x2="942.91" y2="1100.73"/><line class="cls-3" x1="849.95" y1="1146.56" x2="942.91" y2="1146.56"/><line class="cls-3" x1="849.95" y1="1192.4" x2="942.91" y2="1192.4"/></svg>