<?xml version="1.0" encoding="UTF-8"?><svg id="Capa_1" xmlns="http://www.w3.org/2000/svg" viewBox="0 0 1500 1500"><defs><style>.cls-1{fill:#fff;}.cls-1,.cls-2{stroke:#fff;stroke-miterlimit:10;stroke-width:4px;}.cls-2{fill:none;}</style></defs><g id="Casa"><rect class="cls-2" x="722.66" y="862.09" width="352.03" height="95.06"/><polygon class="cls-2" points="1319.17 743.28 1319.17 743.29 645.03 743.29 645.03 1028.43 645.02 1028.43 645.02 743.28 1319.17 743.28"/><rect class="cls-2" x="818.25" y="1327.65" width="177.05" height="0"/><polygon class="cls-2" points="1183.62 1075.96 1183.62 1075.97 645.03 1075.97 645.03 1327.66 645.02 1327.66 645.02 1028.43 645.03 1028.43 645.03 1075.96 818.25 1075.96 818.25 1075.95 995.3 1075.95 995.3 1075.96 1183.62 1075.96"/><rect class="cls-2" x="995.3" y="1075.97" width="188.32" height="251.69"/><rect class="cls-2" x="645.03" y="1075.97" width="173.22" height="251.7"/><rect class="cls-2" x="818.25" y="1327.65" width="177.05" height="0"/><polygon class="cls-2" points="1183.62 1075.96 1183.62 1075.97 645.03 1075.97 645.03 1327.66 120.5 1327.66 120.5 1075.96 1183.62 1075.96"/><path class="cls-2" d="M1436.09,458.13V172.33H63.89v285.8H22.54v285.16h44.11v584.38h53.84v-251.72h524.54v-332.66h832.43v-285.16h-41.37ZM205,631.62h-87.99v-95.05h87.99v95.05Z"/><rect class="cls-2" x="120.5" y="1075.95" width="524.52" height="251.71"/><rect class="cls-2" x="818.25" y="1075.97" width="177.05" height="251.69"/><rect class="cls-2" x="818.25" y="1075.95" width="177.05" height=".02"/><rect class="cls-2" x="149.89" y="262.75" width="352.02" height="95.05"/><rect class="cls-2" x="237.89" y="262.75" width="176.01" height="95.05"/><rect class="cls-2" x="325.91" y="262.75" width="176.01" height="95.05"/><rect class="cls-2" x="576.4" y="262.75" width="352.05" height="95.05"/><rect class="cls-2" x="664.42" y="262.75" width="176.01" height="95.05"/><rect class="cls-2" x="752.43" y="262.75" width="176.01" height="95.05"/><rect class="cls-2" x="998.08" y="262.75" width="352.05" height="95.05"/><rect class="cls-2" x="1086.09" y="262.75" width="176.01" height="95.05"/><rect class="cls-2" x="1174.11" y="262.75" width="176.01" height="95.05"/><rect class="cls-2" x="205" y="536.58" width="264.04" height="95.04"/><rect class="cls-2" x="1030.96" y="536.57" width="352.05" height="95.05"/><rect class="cls-2" x="1118.98" y="536.57" width="176.01" height="95.05"/><rect class="cls-2" x="1206.97" y="536.57" width="176.03" height="95.05"/><rect class="cls-2" x="573.5" y="536.57" width="352.02" height="95.05"/><rect class="cls-2" x="661.5" y="536.57" width="176.03" height="95.05"/><rect class="cls-2" x="749.51" y="536.57" width="176.01" height="95.05"/><rect class="cls-2" x="117.02" y="536.58" width="87.99" height="95.04"/><rect class="cls-2" x="205" y="536.58" width="264.04" height="95.04"/><rect class="cls-2" x="205" y="536.58" width="176.03" height="95.04"/><rect class="cls-2" x="293.02" y="536.57" width="176.01" height="95.05"/><rect class="cls-2" x="233.71" y="862.09" width="352.02" height="95.05"/><rect class="cls-2" x="321.7" y="862.09" width="176.01" height="95.05"/><rect class="cls-2" x="409.72" y="862.09" width="176.01" height="95.05"/><rect class="cls-2" x="810.66" y="862.09" width="176.01" height="95.05"/><rect class="cls-2" x="898.67" y="862.09" width="176.02" height="95.05"/><path class="cls-1" d="M645.03,743.29v332.67h173.22s177.05-.01,177.05-.01h0s188.32.01,188.32.01v251.7h135.55v-584.37h-674.14ZM722.66,862.09h352.03v95.06h-352.03v-95.06Z"/><polygon class="cls-2" points="1183.62 1075.96 1183.62 1327.66 645.02 1327.66 645.02 1028.43 645.03 1028.43 645.03 1075.96 818.25 1075.96 818.25 1075.95 995.3 1075.95 995.3 1075.96 1183.62 1075.96"/></g></svg>